<?xml version="1.0"?>
<svg width="640" height="480" xmlns="http://www.w3.org/2000/svg" xmlns:svg="http://www.w3.org/2000/svg">
 <!-- Created with SVG-edit - https://github.com/SVG-Edit/svgedit-->

 <g class="layer">
  <title>Layer 1</title>
  <g id="svg_29">
   <g id="svg_19">
    <text font-style="italic" stroke="#000000" transform="matrix(1.5821346141009514,0,0,1.6259298324584956,-99.600960060915,-100.65302293002605) " xml:space="preserve" text-anchor="middle" font-family="serif" font-size="24" id="svg_10" y="189.5" x="153.621244" stroke-linecap="null" stroke-linejoin="null" stroke-dasharray="null" stroke-width="0" fill="#000000">Designed by</text>
    <text stroke="#000000" transform="rotate(178.21002197265625 83.19153594970705,256.6896057128906) matrix(3.8181817531585693,0,0,5.192307472229004,-395.47016132995486,-662.3845806121826) " xml:space="preserve" text-anchor="middle" font-family="serif" font-size="24" id="svg_11" y="184.970371" x="125.333333" stroke-linecap="null" stroke-linejoin="null" stroke-dasharray="null" stroke-width="0" fill="#000000">M</text>
    <text stroke="#000000" transform="rotate(179.3578643798828 176.34585571289062,241.02412414550784) matrix(2.067583147727589,0,0,3.076923131942749,-212.9761431643289,-419.5384726524353) " xml:space="preserve" text-anchor="middle" font-family="serif" font-size="24" id="svg_12" y="222.675" x="188.110203" stroke-linecap="null" stroke-linejoin="null" stroke-dasharray="null" stroke-width="0" fill="#000000">tumha</text>
    <text stroke="#000000" transform="rotate(-179.54783630371094 268.056884765625,259.1402587890625) matrix(4.161795311471956,0,0,5.485339435765616,-1514.1675012146725,-858.0967481167727) " xml:space="preserve" text-anchor="middle" font-family="serif" font-size="24" id="svg_13" y="211.81771" x="428.117658" stroke-linecap="null" stroke-linejoin="null" stroke-dasharray="null" stroke-width="0" fill="#000000">K</text>
    <text stroke="#000000" transform="rotate(179.7157440185547 338.6982727050782,240.72418212890625) matrix(2.2030625306912013,0,0,3.0174909420967797,-347.96074568291067,-544.2228903477854) " xml:space="preserve" text-anchor="middle" font-family="serif" font-size="24" id="svg_14" y="268.616374" x="311.414815" stroke-linecap="null" stroke-linejoin="null" stroke-dasharray="null" stroke-width="0" fill="#000000">aya</text>
    <path id="svg_20" d="m434.762369,299.34511c-3.108676,-1.331133 -6.492456,0.614598 -9.813625,-1.324219c2.685959,-0.167093 6.72198,-0.012588 6.009232,-3.995888c1.175233,-4.651601 -1.209786,-9.531635 0.775792,-13.579944c-3.109669,-2.96696 -6.373627,-6.479688 -8.031564,-10.62378c-0.332742,1.671856 -0.639409,3.001816 -1.112309,0.119459c-0.271086,-1.410537 -0.106585,3.48673 -1.143048,0.050529c-1.093194,-3.05548 -4.03633,-11.02252 -4.949516,-3.633011c-0.37927,3.813199 -1.569462,1.107607 -2.113458,-1.312236c-0.552717,-4.659664 -2.549143,-8.976396 -3.072034,-13.626962c2.043673,-2.945989 -0.291338,-3.347107 -1.377524,-0.408039c-1.196081,4.662566 -2.220723,9.277191 -0.972971,14.080645c-1.658211,1.356482 -4.858844,-6.312535 -3.386735,-9.254265c1.27712,-3.328538 0.993168,-6.726009 1.205693,-8.977646c1.16771,-2.540017 -1.136158,-5.300224 0.088488,-8.008955c-3.12939,3.411708 -5.927894,5.771522 -5.048813,11.123917c-0.388438,1.33519 1.304269,9.012749 0.226234,6.185623c-2.035339,-5.518984 -2.036903,-11.631244 -0.505231,-17.26272c0.001884,-4.298367 -3.484342,7.422815 -3.22699,1.677618c-0.329945,-4.33286 1.455734,-9.097369 3.146913,-12.523162c-1.925496,-2.291269 -8.161945,-0.667688 -5.211609,-5.531812c2.903497,-2.472173 2.592332,-5.8717 -1.359342,-2.882544c-6.102063,4.481726 -11.164704,10.239635 -16.75863,15.329419c5.374511,-6.90874 11.433423,-13.594167 18.932469,-18.229094c7.270998,-4.578681 17.814172,-5.052047 24.088164,1.509518c1.595808,2.810638 5.30505,4.673841 6.189466,7.204077c-0.650148,3.792503 1.798616,5.673038 2.061502,9.006328c1.545296,2.572062 -1.394184,7.196285 3.003013,5.863297c5.002,-0.00703 11.847482,-1.115286 12.238763,-7.3539c1.996282,-8.984891 2.915282,-19.023096 9.307613,-26.173895c3.55268,-2.076834 1.345996,-1.52411 -1.250119,-1.866189c-2.295108,-2.671096 2.316632,-6.958953 4.587022,-7.447721c-0.391668,-6.312725 3.710559,3.784497 4.883263,-0.850388c1.75964,0.033464 2.617498,4.255309 3.687228,0.809362c3.190119,2.699326 6.561744,6.782554 2.347762,10.54173c4.794067,2.298292 -4.884972,0.809918 -0.755624,4.331075c3.408041,3.293936 0.998969,9.378757 -1.798623,12.030548c-0.10866,1.993834 3.28014,4.890547 3.961512,7.309432c3.520272,6.814775 4.226141,14.922295 2.876919,22.390057c-1.899682,7.038466 -8.969581,10.101325 -13.968439,14.572682c-4.270088,3.500685 -2.767657,9.640654 -4.789414,14.237918c0.201019,2.654643 1.682732,5.677638 3.788015,7.280114c3.050975,1.704968 6.625271,2.805643 9.092171,5.301911c-2.253032,1.176607 -6.846771,-3.598814 -6.891203,0.137425c-3.346973,-4.347773 -8.371448,-1.430378 -12.050255,-4.774001c3.061468,0.583427 7.040985,0.282727 3.688401,-3.38534c-1.323785,-3.101983 -5.310949,-4.172456 -5.416724,-7.921495c-3.756925,2.358628 -6.313349,5.569852 -9.041433,8.771658c-4.528867,-0.28291 -4.724138,8.846409 0.166124,8.710963c2.008321,0.513624 9.545717,3.312044 3.610271,2.58919c-1.76916,-0.316103 -3.688454,-1.423316 -3.634349,0.654167c-0.811295,-0.145928 -1.535614,-0.549473 -2.28245,-0.871455l0.000004,0z" stroke-linecap="null" stroke-linejoin="null" stroke-dasharray="null" stroke-width="0" stroke="#000000" fill="#440606"/>
   </g>
   <line id="svg_24" y2="308" x2="596" y1="309" x1="-1" stroke-linecap="null" stroke-linejoin="null" stroke-dasharray="null" stroke-width="5" stroke="#4f0606" fill="none"/>
   <line id="svg_26" y2="317" x2="596" y1="318" x1="-1" stroke-linecap="null" stroke-linejoin="null" stroke-dasharray="null" stroke-width="5" stroke="#4f0606" fill="none"/>
   <line id="svg_27" y2="174" x2="598" y1="175" x1="1" stroke-linecap="null" stroke-linejoin="null" stroke-dasharray="null" stroke-width="5" stroke="#4f0606" fill="none"/>
   <line x1="1" stroke="#4f0606" id="svg_28" y2="165" x2="598" y1="166" stroke-linecap="null" stroke-linejoin="null" stroke-dasharray="null" stroke-width="5" fill="none"/>
  </g>
 </g>
</svg>